<svg width="99" height="29" viewBox="0 0 99 29" fill="none" xmlns="http://www.w3.org/2000/svg">
<path d="M30.7585 14V5.27273H36.6392V6.79403H32.6037V8.87358H36.3366V10.3949H32.6037V12.4787H36.6562V14H30.7585ZM39.8874 10.2159V14H38.0721V7.45455H39.8022V8.60938H39.8789C40.0238 8.22869 40.2667 7.92756 40.6076 7.70597C40.9485 7.48153 41.3619 7.36932 41.8477 7.36932C42.3022 7.36932 42.6985 7.46875 43.0366 7.66761C43.3746 7.86648 43.6374 8.15057 43.8249 8.51989C44.0124 8.88636 44.1062 9.32386 44.1062 9.83239V14H42.2908V10.1562C42.2937 9.75568 42.1914 9.44318 41.984 9.21875C41.7766 8.99148 41.4911 8.87784 41.1275 8.87784C40.8832 8.87784 40.6673 8.9304 40.4798 9.03551C40.2951 9.14062 40.1502 9.29403 40.0451 9.49574C39.9428 9.6946 39.8903 9.93466 39.8874 10.2159ZM45.5369 14V7.45455H47.2969V8.59659H47.3651C47.4844 8.19034 47.6847 7.88352 47.9659 7.67614C48.2472 7.46591 48.571 7.3608 48.9375 7.3608C49.0284 7.3608 49.1264 7.36648 49.2315 7.37784C49.3366 7.3892 49.429 7.40483 49.5085 7.42472V9.03551C49.4233 9.00994 49.3054 8.98722 49.1548 8.96733C49.0043 8.94744 48.8665 8.9375 48.7415 8.9375C48.4744 8.9375 48.2358 8.99574 48.0256 9.11222C47.8182 9.22585 47.6534 9.38494 47.5312 9.58949C47.4119 9.79403 47.3523 10.0298 47.3523 10.2969V14H45.5369ZM50.4471 14V7.45455H52.2624V14H50.4471ZM51.359 6.6108C51.0891 6.6108 50.8576 6.52131 50.6644 6.34233C50.4741 6.16051 50.3789 5.94318 50.3789 5.69034C50.3789 5.44034 50.4741 5.22585 50.6644 5.04688C50.8576 4.86506 51.0891 4.77415 51.359 4.77415C51.6289 4.77415 51.859 4.86506 52.0494 5.04688C52.2425 5.22585 52.3391 5.44034 52.3391 5.69034C52.3391 5.94318 52.2425 6.16051 52.0494 6.34233C51.859 6.52131 51.6289 6.6108 51.359 6.6108ZM56.674 14.1278C56.0036 14.1278 55.4268 13.9858 54.9439 13.7017C54.4638 13.4148 54.0945 13.017 53.8359 12.5085C53.5803 12 53.4524 11.4148 53.4524 10.7528C53.4524 10.0824 53.5817 9.49432 53.8402 8.98864C54.1016 8.48011 54.4723 8.08381 54.9524 7.79972C55.4325 7.51278 56.0036 7.36932 56.6655 7.36932C57.2365 7.36932 57.7365 7.47301 58.1655 7.6804C58.5945 7.88778 58.9339 8.17898 59.1839 8.55398C59.4339 8.92898 59.5717 9.36932 59.5973 9.875H57.8842C57.8359 9.5483 57.7081 9.28551 57.5007 9.08665C57.2962 8.88494 57.0277 8.78409 56.6953 8.78409C56.4141 8.78409 56.1683 8.8608 55.9581 9.0142C55.7507 9.16477 55.5888 9.38494 55.4723 9.67472C55.3558 9.96449 55.2976 10.3153 55.2976 10.7273C55.2976 11.1449 55.3544 11.5 55.468 11.7926C55.5845 12.0852 55.7479 12.3082 55.9581 12.4616C56.1683 12.6151 56.4141 12.6918 56.6953 12.6918C56.9027 12.6918 57.0888 12.6491 57.2536 12.5639C57.4212 12.4787 57.5589 12.3551 57.6669 12.1932C57.7777 12.0284 57.8501 11.831 57.8842 11.6009H59.5973C59.5689 12.1009 59.4325 12.5412 59.1882 12.9219C58.9467 13.2997 58.6129 13.5952 58.1868 13.8082C57.7607 14.0213 57.2564 14.1278 56.674 14.1278ZM62.5749 10.2159V14H60.7596V5.27273H62.5238V8.60938H62.6005C62.7482 8.22301 62.9869 7.92045 63.3164 7.7017C63.646 7.48011 64.0593 7.36932 64.5565 7.36932C65.011 7.36932 65.4073 7.46875 65.7454 7.66761C66.0863 7.86364 66.3505 8.14631 66.538 8.51562C66.7283 8.8821 66.8221 9.32102 66.8192 9.83239V14H65.0039V10.1562C65.0067 9.75284 64.9045 9.43892 64.6971 9.21449C64.4925 8.99006 64.2056 8.87784 63.8363 8.87784C63.5891 8.87784 63.3704 8.9304 63.18 9.03551C62.9925 9.14062 62.8448 9.29403 62.7369 9.49574C62.6317 9.6946 62.5778 9.93466 62.5749 10.2159ZM68.2479 14V7.45455H70.0632V14H68.2479ZM69.1598 6.6108C68.8899 6.6108 68.6584 6.52131 68.4652 6.34233C68.2749 6.16051 68.1797 5.94318 68.1797 5.69034C68.1797 5.44034 68.2749 5.22585 68.4652 5.04688C68.6584 4.86506 68.8899 4.77415 69.1598 4.77415C69.4297 4.77415 69.6598 4.86506 69.8501 5.04688C70.0433 5.22585 70.1399 5.44034 70.1399 5.69034C70.1399 5.94318 70.0433 6.16051 69.8501 6.34233C69.6598 6.52131 69.4297 6.6108 69.1598 6.6108ZM75.0373 7.45455V8.81818H70.9975V7.45455H75.0373ZM71.9222 14V6.98153C71.9222 6.5071 72.0146 6.11364 72.1992 5.80114C72.3867 5.48864 72.6424 5.25426 72.9663 5.09801C73.2901 4.94176 73.658 4.86364 74.07 4.86364C74.3484 4.86364 74.6026 4.88494 74.8327 4.92756C75.0657 4.97017 75.239 5.00852 75.3526 5.04261L75.0288 6.40625C74.9577 6.38352 74.8697 6.36222 74.7646 6.34233C74.6623 6.32244 74.5572 6.3125 74.4492 6.3125C74.1822 6.3125 73.9961 6.375 73.891 6.5C73.7859 6.62216 73.7333 6.79403 73.7333 7.01562V14H71.9222ZM77.267 16.4545C77.0369 16.4545 76.821 16.4361 76.6193 16.3991C76.4205 16.3651 76.2557 16.321 76.125 16.267L76.5341 14.9119C76.7472 14.9773 76.9389 15.0128 77.1094 15.0185C77.2827 15.0241 77.4318 14.9844 77.5568 14.8991C77.6847 14.8139 77.7884 14.669 77.8679 14.4645L77.9744 14.1875L75.6264 7.45455H77.5355L78.8906 12.2614H78.9588L80.3267 7.45455H82.2486L79.7045 14.7074C79.5824 15.0597 79.4162 15.3665 79.206 15.6278C78.9986 15.892 78.7358 16.0952 78.4176 16.2372C78.0994 16.3821 77.7159 16.4545 77.267 16.4545Z" fill="#716969"/>
<path d="M17.1687 1.24357C17.5646 0.651256 18.4354 0.651255 18.8313 1.24357L26.4862 12.6942C26.9304 13.3587 26.4542 14.25 25.6549 14.25H10.3451C9.54583 14.25 9.06956 13.3587 9.51376 12.6942L17.1687 1.24357Z" fill="#E04242"/>
<path d="M10.1687 1.24357C10.5646 0.651256 11.4354 0.651255 11.8313 1.24357L19.4862 12.6942C19.9304 13.3587 19.4542 14.25 18.6549 14.25H3.34511C2.54583 14.25 2.06956 13.3587 2.51376 12.6942L10.1687 1.24357Z" fill="#FF7B7B"/>
</svg>
